Coordinates
version=1
nRows=8
nColumns=63
inDegrees=yes

Units are S.I. units (second, meters, Newtons, ...)
If the header above contains a line with 'inDegrees', this indicates whether rotational values are in degrees (yes) or radians (no).

endheader
time	pelvis_tilt	pelvis_list	pelvis_rotation	pelvis_tx	pelvis_ty	pelvis_tz	hip_flexion_r	hip_adduction_r	hip_rotation_r	knee_angle_r	knee_angle_r_beta	ankle_angle_r	subtalar_angle_r	mtp_angle_r	hip_flexion_l	hip_adduction_l	hip_rotation_l	knee_angle_l	knee_angle_l_beta	ankle_angle_l	subtalar_angle_l	mtp_angle_l	L5_S1_Flex_Ext	L5_S1_Lat_Bending	L5_S1_axial_rotation	L4_L5_Flex_Ext	L4_L5_Lat_Bending	L4_L5_axial_rotation	L3_L4_Flex_Ext	L3_L4_Lat_Bending	L3_L4_axial_rotation	L2_L3_Flex_Ext	L2_L3_Lat_Bending	L2_L3_axial_rotation	L1_L2_Flex_Ext	L1_L2_Lat_Bending	L1_L2_axial_rotation	L1_T12_Flex_Ext	L1_T12_Lat_Bending	L1_T12_axial_rotation	Abs_r3	Abs_r2	Abs_r1	Abs_t1	Abs_t2	neck_flexion	neck_bending	neck_rotation	arm_flex_r	arm_add_r	arm_rot_r	elbow_flex_r	pro_sup_r	wrist_flex_r	wrist_dev_r	arm_flex_l	arm_add_l	arm_rot_l	elbow_flex_l	pro_sup_l	wrist_flex_l	wrist_dev_l
      2.70000000	     -2.45238671	     -6.55439633	     93.00728658	      0.23455923	      0.80923815	      0.68148885	      1.76849019	     -2.21920466	    -21.20394885	     10.23093492	      0.17856350	     26.54137140	     17.12350788	      0.00000000	      1.76846029	     -0.36308963	     21.30650631	      6.89440797	      0.12033012	     17.26616514	    -15.48241061	      0.00000000	     -0.21747598	     -0.87926907	      0.00648497	     -0.40387465	     -1.16942786	      0.00689028	     -0.35729129	     -2.13785481	      0.00689028	     -0.24855330	     -2.13785481	      0.00567435	     -0.20194820	     -1.79300548	      0.00526904	     -0.12426578	     -1.36198779	      0.00486373	     -1.55340919	     -9.94646756	      0.03606746	      0.00000000	      0.00000000	      4.44331843	      7.61568701	    -24.60243559	      6.80997031	    -10.67746825	     -2.20914774	    103.80610275	     83.67629533	     -4.24386173	     28.69168471	      1.76349097	    -21.81154328	    151.25265985	      4.75816507	     14.08234490	     -3.31548249	    -11.83149515
      2.71666667	     -2.68340580	     -6.59952471	     92.84696448	      0.23575034	      0.80842916	      0.68097598	      1.78288280	     -2.39587730	    -21.03464004	     10.21160178	      0.17822607	     26.78125801	     17.20616677	      0.00000000	      1.76389553	     -0.18440503	     20.81858218	      6.93406464	      0.12102226	     17.31290960	    -15.02825302	      0.00000000	     -0.21611000	     -0.93778690	      0.09047535	     -0.40133789	     -1.24725658	      0.09613006	     -0.35504712	     -2.28013508	      0.09613006	     -0.24699212	     -2.28013508	      0.07916593	     -0.20067975	     -1.91233505	      0.07351122	     -0.12348526	     -1.45263191	      0.06785651	     -1.54365214	    -10.60843301	      0.50319675	      0.00000000	      0.00000000	      4.77539207	      7.72243041	    -26.11074582	      5.30028555	    -10.17575267	     -2.45197661	    103.18996980	     86.05799894	     -4.45492843	     27.96343406	      1.46820557	    -22.29244177	    147.20105073	      4.73191149	      6.98548961	     -0.52283309	    -12.90111019
      2.73333333	     -2.83398022	     -6.54056809	     92.57786743	      0.23684703	      0.80762489	      0.68045530	      1.74414389	     -2.49226247	    -20.78690674	     10.22046487	      0.17838076	     27.22615275	     17.28098645	      0.00000000	      1.66361198	     -0.06591961	     20.44557036	      7.01565503	      0.12244628	     17.41505561	    -14.91296481	      0.00000000	     -0.22469122	     -0.98053625	      0.19187701	     -0.41727406	     -1.30411322	      0.20386932	     -0.36914520	     -2.38407584	      0.20386932	     -0.25679959	     -2.38407584	      0.16789238	     -0.20864827	     -1.99950953	      0.15590007	     -0.12838856	     -1.51885065	      0.14390776	     -1.60494690	    -11.09202219	      1.06716236	      0.00000000	      0.00000000	      5.10271238	      7.95453583	    -27.06622862	      3.88165184	     -9.93459587	     -2.34000342	    102.23892914	     86.84113582	     -4.63392259	     27.43718672	      1.53302872	    -22.45957938	    146.11507867	      4.57732885	      5.10278940	      0.16829169	    -13.62348891
      2.75000000	     -2.82623926	     -6.44623212	     92.49212915	      0.23732987	      0.80690835	      0.67996568	      1.63448508	     -2.42059752	    -20.63343732	     10.11183927	      0.17648489	     27.86118138	     17.35640067	      0.00000000	      1.58455526	     -0.08059057	     20.39670070	      7.12842600	      0.12441450	     17.63003671	    -14.96233622	      0.00000000	     -0.23461623	     -0.99104380	      0.23394841	     -0.43570581	     -1.31808825	      0.24857019	     -0.38545101	     -2.40962389	      0.24857019	     -0.26814289	     -2.40962389	      0.20470486	     -0.21786463	     -2.02093651	      0.19008308	     -0.13405972	     -1.53512684	      0.17546131	     -1.67584029	    -11.21088564	      1.30115087	      0.00000000	      0.00000000	      5.42107810	      8.08336174	    -27.26221365	      2.60893449	     -9.95898450	     -1.68615808	    101.03260820	     87.10330983	     -4.51349376	     27.52019723	      1.76363699	    -22.29691102	    145.84418726	      4.38280597	      4.75420864	      0.20232586	    -13.81451473
      2.76666667	     -2.95721031	     -6.28815610	     91.46364742	      0.23836362	      0.80659176	      0.67958870	      1.69742586	     -2.54519797	    -19.28786446	     10.18852076	      0.17782323	     28.37198337	     17.44822379	      0.00000000	      1.32180289	      0.05321251	     19.24610505	      7.07870128	      0.12354664	     17.87825590	    -14.92133407	      0.00000000	     -0.24293859	     -1.00194962	      0.37922673	     -0.45116126	     -1.33259300	      0.40292840	     -0.39912381	     -2.43614031	      0.40292840	     -0.27765452	     -2.43614031	      0.33182339	     -0.22559278	     -2.04317567	      0.30812172	     -0.13881511	     -1.55201997	      0.28442005	     -1.73528607	    -11.33425453	      2.10914530	      0.00000000	      0.00000000	      5.83903606	      8.33291608	    -26.68904809	      1.52400784	    -10.11966246	     -0.37252974	     99.16201627	     88.05741431	     -3.44506865	     26.28223072	      1.80703841	    -21.99916710	    143.32184161	      4.22226995	      2.81049432	      1.06407068	    -14.91605039
      2.78333333	     -2.87398882	     -6.15722868	     90.75534408	      0.23838381	      0.80653133	      0.67916745	      1.67551286	     -2.44446471	    -18.11468012	     10.05495213	      0.17549202	     28.85838484	     17.47080908	      0.00000000	      1.20291051	      0.01724866	     18.30190995	      7.12331847	      0.12432536	     18.38916061	    -14.74945069	      0.00000000	     -0.24376400	     -0.96878173	      0.44653475	     -0.45269412	     -1.28847971	      0.47444317	     -0.40047987	     -2.35549591	      0.47444317	     -0.27859787	     -2.35549591	      0.39071790	     -0.22635925	     -1.97553971	      0.36280948	     -0.13928675	     -1.50064291	      0.33490106	     -1.74118185	    -10.95905273	      2.48349230	      0.00000000	      0.00000000	      6.11579863	      8.35646606	    -25.54413939	      0.51471971	    -10.50353510	      1.55261269	     97.03206470	     88.41420259	     -2.76121031	     25.67520282	      2.03045076	    -21.23481782	    140.60225678	      3.88776323	      2.67772069	      1.28114267	    -15.63183970
      2.80000000	     -2.74196017	     -5.99585981	     90.05639224	      0.23787262	      0.80668247	      0.67865245	      1.61083892	     -2.33540115	    -16.99167897	      9.91291715	      0.17301304	     29.31468393	     17.65834636	      0.00000000	      1.00947247	     -0.03619619	     17.65357794	      7.02689131	      0.12264239	     18.84135456	    -14.99113323	      0.00000000	     -0.24402582	     -0.91142079	      0.48431815	     -0.45318034	     -1.21218965	      0.51458803	     -0.40091001	     -2.21602850	      0.51458803	     -0.27889711	     -2.21602850	      0.42377838	     -0.22660237	     -1.85856927	      0.39350850	     -0.13943635	     -1.41179080	      0.36323861	     -1.74305200	    -10.31017424	      2.69363224	      0.00000000	      0.00000000	      6.20135471	      8.09927236	    -23.81557813	     -0.39344625	    -10.86841393	      3.93107012	     94.49835839	     88.60589231	     -2.54028179	     25.23142601	      2.31377184	    -20.06327542	    140.43343632	      2.87150649	      2.46730134	      1.29886453	    -16.38467584
      2.81666667	     -2.50371152	     -5.88625303	     89.39521152	      0.23698026	      0.80681168	      0.67806633	      1.56013715	     -2.13721358	    -16.03941040	      9.72471311	      0.16972826	     29.64233183	     17.94923040	      0.00000000	      0.90654839	     -0.16667523	     17.03467703	      6.99370790	      0.12206323	     19.31320190	    -15.32229226	      0.00000000	     -0.23372011	     -0.83039623	      0.53733330	     -0.43404162	     -1.10442699	      0.57091663	     -0.38397878	     -2.01902540	      0.57091663	     -0.26711872	     -2.01902540	      0.47016664	     -0.21703250	     -1.69334399	      0.43658330	     -0.13354767	     -1.28628376	      0.40299997	     -1.66943940	     -9.39360825	      2.98848660	      0.00000000	      0.00000000	      6.03585743	      7.42207590	    -22.05158998	     -1.42790211	    -11.04311316	      6.12968041	     91.74789984	     88.67291758	     -2.67245617	     24.96787178	      2.83658297	    -18.70322712	    140.79885527	      1.79718127	      2.37708062	      1.30548325	    -17.01667896
